grf
version=1
nRows=68
nColumns=19
inDegrees=yes
endheader
time	ground_force_2_vx	ground_force_2_vy	ground_force_2_vz	ground_force_2_px	ground_force_2_py	ground_force_2_pz	ground_moment_2_mx	ground_moment_2_my	ground_moment_2_mz	ground_force_3_vx	ground_force_3_vy	ground_force_3_vz	ground_force_3_px	ground_force_3_py	ground_force_3_pz	ground_moment_3_mx	ground_moment_3_my	ground_moment_3_mz
0.000000	0.000000	0.000000	0.000000	-0.304191	0.000000	0.160230	0.000000	0.000000	0.000000	0.000000	0.000000	0.000000	-0.966670	0.000000	0.342308	0.000000	0.000000	0.000000
0.001000	0.000000	0.000000	0.000000	-0.297047	0.000000	0.153702	0.000000	0.000000	0.000000	0.000000	0.000000	0.000000	-0.952221	0.000000	0.377386	0.000000	0.000000	0.000000
0.002000	0.000000	0.000000	0.000000	-0.292023	0.000000	0.149112	0.000000	0.000000	0.000000	0.000000	0.000000	0.000000	-1.064437	0.000000	0.104969	0.000000	0.000000	0.000000
0.003000	0.000000	0.000000	0.000000	-0.288109	0.000000	0.145535	0.000000	0.000000	0.000000	0.000000	0.000000	0.000000	-0.993176	0.000000	0.277962	0.000000	0.000000	0.000000
0.004000	0.000000	0.000000	0.000000	-0.284806	0.000000	0.142518	0.000000	0.000000	0.000000	0.000000	0.000000	0.000000	-0.985795	0.000000	0.295881	0.000000	0.000000	0.000000
0.005000	0.000000	0.000000	0.000000	-0.281830	0.000000	0.139799	0.000000	0.000000	0.000000	0.000000	0.000000	0.000000	-0.982870	0.000000	0.302981	0.000000	0.000000	0.000000
0.006000	0.000000	0.000000	0.000000	-0.278982	0.000000	0.137197	0.000000	0.000000	0.000000	0.000000	0.000000	0.000000	-0.981232	0.000000	0.306959	0.000000	0.000000	0.000000
0.007000	0.000000	0.000000	0.000000	-0.276096	0.000000	0.134560	0.000000	0.000000	0.000000	0.000000	0.000000	0.000000	-0.980134	0.000000	0.309624	0.000000	0.000000	0.000000
0.008000	0.000000	0.000000	0.000000	-0.272999	0.000000	0.131731	0.000000	0.000000	0.000000	0.000000	0.000000	0.000000	-0.979307	0.000000	0.311631	0.000000	0.000000	0.000000
0.009000	0.000000	0.000000	0.000000	-0.269462	0.000000	0.128499	0.000000	0.000000	0.000000	0.000000	0.000000	0.000000	-0.978629	0.000000	0.313277	0.000000	0.000000	0.000000
0.010000	0.000000	0.000000	0.000000	-0.265124	0.000000	0.124535	0.000000	0.000000	0.000000	0.000000	0.000000	0.000000	-0.978032	0.000000	0.314727	0.000000	0.000000	0.000000
0.011000	0.000000	0.000000	0.000000	-0.259312	0.000000	0.119225	0.000000	0.000000	0.000000	0.000000	0.000000	0.000000	-0.977472	0.000000	0.316085	0.000000	0.000000	0.000000
0.012000	0.000000	0.000000	0.000000	-0.250533	0.000000	0.111204	0.000000	0.000000	0.000000	0.000000	0.000000	0.000000	-0.976918	0.000000	0.317432	0.000000	0.000000	0.000000
0.013000	0.000000	0.000000	0.000000	-0.234539	0.000000	0.096590	0.000000	0.000000	0.000000	0.000000	0.000000	0.000000	-0.976335	0.000000	0.318846	0.000000	0.000000	0.000000
0.014000	0.000000	0.000000	0.000000	-0.192233	0.000000	0.057937	0.000000	0.000000	0.000000	0.000000	0.000000	0.000000	-0.975685	0.000000	0.320424	0.000000	0.000000	0.000000
0.015000	0.000000	0.000000	0.000000	0.441099	-0.000000	-0.520718	0.000000	0.000000	0.000000	0.000000	0.000000	0.000000	-0.974910	0.000000	0.322305	0.000000	0.000000	0.000000
0.016000	0.000000	0.000000	0.000000	-0.396073	0.000000	0.244179	0.000000	0.000000	0.000000	0.000000	0.000000	0.000000	-0.973908	0.000000	0.324738	0.000000	0.000000	0.000000
0.017000	0.000000	0.000000	0.000000	-0.332078	0.000000	0.185709	0.000000	0.000000	0.000000	0.000000	0.000000	0.000000	-0.972467	0.000000	0.328235	0.000000	0.000000	0.000000
0.018000	0.000000	0.000000	0.000000	-0.312145	0.000000	0.167497	0.000000	0.000000	0.000000	0.000000	0.000000	0.000000	-0.970048	0.000000	0.334108	0.000000	0.000000	0.000000
0.019000	0.000000	0.000000	0.000000	-0.302001	0.000000	0.158228	0.000000	0.000000	0.000000	0.000000	0.000000	0.000000	-0.964688	0.000000	0.347122	0.000000	0.000000	0.000000
0.020000	0.000000	0.000000	0.000000	-0.295569	0.000000	0.152352	0.000000	0.000000	0.000000	0.000000	0.000000	0.000000	-0.939066	0.000000	0.409320	0.000000	0.000000	0.000000
0.021000	0.000000	0.000000	0.000000	-0.290907	0.000000	0.148092	0.000000	0.000000	0.000000	0.000000	0.000000	0.000000	-1.017373	0.000000	0.219223	0.000000	0.000000	0.000000
0.022000	0.000000	0.000000	0.000000	-0.287190	0.000000	0.144697	0.000000	0.000000	0.000000	0.000000	0.000000	0.000000	-0.990287	0.000000	0.284976	0.000000	0.000000	0.000000
0.023000	0.000000	0.000000	0.000000	-0.283997	0.000000	0.141779	0.000000	0.000000	0.000000	0.000000	0.000000	0.000000	-0.984809	0.000000	0.298274	0.000000	0.000000	0.000000
0.024000	0.000000	0.000000	0.000000	-0.281072	0.000000	0.139106	0.000000	0.000000	0.000000	0.000000	0.000000	0.000000	-0.982358	0.000000	0.304225	0.000000	0.000000	0.000000
0.025000	0.000000	0.000000	0.000000	-0.278229	0.000000	0.136509	0.000000	0.000000	0.000000	0.000000	0.000000	0.000000	-0.980904	0.000000	0.307754	0.000000	0.000000	0.000000
0.026000	0.000000	0.000000	0.000000	-0.275306	0.000000	0.133838	0.000000	0.000000	0.000000	0.000000	0.000000	0.000000	-0.979896	0.000000	0.310202	0.000000	0.000000	0.000000
0.027000	0.000000	0.000000	0.000000	-0.272119	0.000000	0.130926	0.000000	0.000000	0.000000	0.000000	0.000000	0.000000	-0.979117	0.000000	0.312092	0.000000	0.000000	0.000000
0.028000	0.000000	0.000000	0.000000	-0.268413	0.000000	0.127541	0.000000	0.000000	0.000000	0.000000	0.000000	0.000000	-0.978465	0.000000	0.313675	0.000000	0.000000	0.000000
0.029000	0.000000	0.000000	0.000000	-0.263771	0.000000	0.123299	0.000000	0.000000	0.000000	0.000000	0.000000	0.000000	-0.977882	0.000000	0.315091	0.000000	0.000000	0.000000
0.030000	0.000000	0.000000	0.000000	-0.257377	0.000000	0.117457	0.000000	0.000000	0.000000	0.000000	0.000000	0.000000	-0.977327	0.000000	0.316439	0.000000	0.000000	0.000000
0.031000	0.000000	0.000000	0.000000	-0.247318	0.000000	0.108266	0.000000	0.000000	0.000000	0.000000	0.000000	0.000000	-0.976768	0.000000	0.317795	0.000000	0.000000	0.000000
0.032000	0.000000	0.000000	0.000000	-0.227643	0.000000	0.090290	0.000000	0.000000	0.000000	0.000000	0.000000	0.000000	-0.976172	0.000000	0.319242	0.000000	0.000000	0.000000
0.033000	0.000000	0.000000	0.000000	-0.165279	0.000000	0.033310	0.000000	0.000000	0.000000	0.000000	0.000000	0.000000	-0.975496	0.000000	0.320884	0.000000	0.000000	0.000000
0.034000	0.000000	0.000000	0.000000	-1.090430	0.000000	0.878591	0.000000	0.000000	0.000000	0.000000	0.000000	0.000000	-0.974673	0.000000	0.322880	0.000000	0.000000	0.000000
0.035000	0.000000	0.000000	0.000000	-0.368261	0.000000	0.218768	0.000000	0.000000	0.000000	0.000000	0.000000	0.000000	-0.973583	0.000000	0.325527	0.000000	0.000000	0.000000
0.036000	0.000000	0.000000	0.000000	-0.325078	0.000000	0.179313	0.000000	0.000000	0.000000	0.000000	0.000000	0.000000	-0.971961	0.000000	0.329466	0.000000	0.000000	0.000000
0.037000	0.000000	0.000000	0.000000	-0.308899	0.000000	0.164531	0.000000	0.000000	0.000000	0.000000	0.000000	0.000000	-0.969079	0.000000	0.336462	0.000000	0.000000	0.000000
0.038000	0.000000	0.000000	0.000000	-0.300053	0.000000	0.156448	0.000000	0.000000	0.000000	0.000000	0.000000	0.000000	-0.961885	0.000000	0.353926	0.000000	0.000000	0.000000
0.039000	0.000000	0.000000	0.000000	-0.294209	0.000000	0.151110	0.000000	0.000000	0.000000	0.000000	0.000000	0.000000	-0.981253	0.000000	0.314067	0.000000	0.000000	0.000000
0.040000	0.000000	0.000000	0.000000	-0.289854	0.000000	0.147131	0.000000	0.000000	0.000000	0.000000	0.000000	0.000000	-0.981298	0.000000	0.313755	0.000000	0.000000	0.000000
0.041000	0.000000	0.000000	0.000000	-0.286308	0.000000	0.143891	0.000000	0.000000	0.000000	0.000000	0.000000	0.000000	-0.981350	0.000000	0.313432	0.000000	0.000000	0.000000
0.042000	0.000000	0.000000	0.000000	-0.283206	0.000000	0.141057	0.000000	0.000000	0.000000	0.000000	0.000000	0.000000	-0.981413	0.000000	0.313096	0.000000	0.000000	0.000000
0.043000	0.000000	0.000000	0.000000	-0.280319	0.000000	0.138419	0.000000	0.000000	0.000000	0.000000	0.000000	0.000000	-0.981495	0.000000	0.312746	0.000000	0.000000	0.000000
0.044000	0.000000	0.000000	0.000000	-0.277472	0.000000	0.135817	0.000000	0.000000	0.000000	0.000000	0.000000	0.000000	-0.981598	0.000000	0.312379	0.000000	0.000000	0.000000
0.045000	0.000000	0.000000	0.000000	-0.274498	0.000000	0.133100	0.000000	0.000000	0.000000	0.000000	0.000000	0.000000	-0.981743	0.000000	0.311984	0.000000	0.000000	0.000000
0.046000	0.000000	0.000000	0.000000	-0.271203	0.000000	0.130090	0.000000	0.000000	0.000000	0.000000	0.000000	0.000000	-0.981931	0.000000	0.311562	0.000000	0.000000	0.000000
0.047000	0.000000	0.000000	0.000000	-0.267301	0.000000	0.126524	0.000000	0.000000	0.000000	0.000000	0.000000	0.000000	-0.982170	0.000000	0.311109	0.000000	0.000000	0.000000
0.048000	0.000000	0.000000	0.000000	-0.262301	0.000000	0.121956	0.000000	0.000000	0.000000	0.000000	0.000000	0.000000	-0.982468	0.000000	0.310620	0.000000	0.000000	0.000000
0.049000	0.000000	0.000000	0.000000	-0.255201	0.000000	0.115469	0.000000	0.000000	0.000000	0.000000	0.000000	0.000000	-0.982834	0.000000	0.310089	0.000000	0.000000	0.000000
0.050000	0.000000	0.000000	0.000000	-0.243508	0.000000	0.104785	0.000000	0.000000	0.000000	0.000000	0.000000	0.000000	-0.983304	0.000000	0.309498	0.000000	0.000000	0.000000
0.051000	0.000000	0.000000	0.000000	-0.218570	0.000000	0.082000	0.000000	0.000000	0.000000	0.000000	0.000000	0.000000	-0.983882	0.000000	0.308845	0.000000	0.000000	0.000000
0.052000	0.000000	0.000000	0.000000	-0.115239	0.000000	-0.012410	0.000000	0.000000	0.000000	0.000000	0.000000	0.000000	-0.984573	0.000000	0.308127	0.000000	0.000000	0.000000
0.053000	0.000000	0.000000	0.000000	-0.538760	0.000000	0.374548	0.000000	0.000000	0.000000	0.000000	0.000000	0.000000	-0.985388	0.000000	0.307340	0.000000	0.000000	0.000000
0.054000	0.000000	0.000000	0.000000	-0.350938	0.000000	0.202941	0.000000	0.000000	0.000000	-8.088018	30.374141	-1.408326	-0.986335	0.000000	0.306480	0.000000	-0.220269	-0.000000
0.055000	0.000000	0.000000	0.000000	-0.319568	0.000000	0.174279	0.000000	0.000000	0.000000	-8.798789	33.237322	-1.446185	-0.987451	0.000000	0.305528	0.000000	-0.217851	-0.000000
0.056000	0.000000	0.000000	0.000000	-0.306116	0.000000	0.161989	0.000000	0.000000	0.000000	-9.527350	36.182243	-1.484134	-0.988730	0.000000	0.304490	0.000000	-0.215076	-0.000000
0.057000	0.000000	0.000000	0.000000	-0.298303	0.000000	0.154850	0.000000	0.000000	0.000000	-10.273522	39.208707	-1.522164	-0.990153	0.000000	0.303376	0.000000	-0.211936	-0.000000
0.058000	0.000000	0.000000	0.000000	-0.292950	0.000000	0.149959	0.000000	0.000000	0.000000	-11.037107	42.316444	-1.560267	-0.991713	0.000000	0.302191	0.000000	-0.208424	-0.000000
0.059000	0.000000	0.000000	0.000000	-0.288857	0.000000	0.146219	0.000000	0.000000	0.000000	-11.817883	45.505108	-1.598437	-0.993405	0.000000	0.300942	0.000000	-0.204535	-0.000000
0.060000	0.000000	0.000000	0.000000	-0.285456	0.000000	0.143112	0.000000	0.000000	0.000000	-12.615612	48.774279	-1.636669	-0.995230	0.000000	0.299627	0.000000	-0.200262	-0.000000
0.061000	0.000000	0.000000	0.000000	-0.282430	0.000000	0.140347	0.000000	0.000000	0.000000	-13.430034	52.123460	-1.674959	-0.997163	0.000000	0.298262	0.000000	-0.195599	-0.000000
0.062000	0.000000	0.000000	0.000000	-0.279569	0.000000	0.137734	0.000000	0.000000	0.000000	-14.260868	55.552080	-1.713304	-0.999162	0.000000	0.296869	0.000000	-0.190543	-0.000000
0.063000	0.000000	0.000000	0.000000	-0.276705	0.000000	0.135117	0.000000	0.000000	0.000000	-15.107815	59.059491	-1.751705	-1.001205	0.000000	0.295458	0.000000	-0.185086	-0.000000
0.064000	0.000000	0.000000	0.000000	-0.273668	0.000000	0.132342	0.000000	0.000000	0.000000	-15.970553	62.644967	-1.790161	-1.003269	0.000000	0.294042	0.000000	-0.179225	-0.000000
0.065000	0.000000	0.000000	0.000000	-0.270246	0.000000	0.129215	0.000000	0.000000	0.000000	-16.848742	66.307707	-1.828676	-1.005326	0.000000	0.292634	0.000000	-0.172956	-0.000000
0.066000	0.000000	0.000000	0.000000	-0.266114	0.000000	0.125440	0.000000	0.000000	0.000000	-17.742023	70.046831	-1.867254	-1.007337	0.000000	0.291254	0.000000	-0.166273	-0.000000
0.067000	0.000000	0.000000	0.000000	-0.260690	0.000000	0.120484	0.000000	0.000000	0.000000	-18.650014	73.861386	-1.905901	-1.009285	0.000000	0.289909	0.000000	-0.159175	-0.000000
